<svg xmlns="http://www.w3.org/2000/svg" xmlns:xlink="http://www.w3.org/1999/xlink" width="1920" zoomAndPan="magnify" viewBox="0 0 1440 809.999993" height="1080" preserveAspectRatio="xMidYMid meet" version="1.0"><defs><clipPath id="f447b09de6"><path d="M 1034.664062 405 L 1439.664062 405 L 1439.664062 810 L 1034.664062 810 Z M 1034.664062 405 " clip-rule="nonzero"/></clipPath><clipPath id="2e41f75a8a"><path d="M 0.328125 0 L 405 0 L 405 405 L 0.328125 405 Z M 0.328125 0 " clip-rule="nonzero"/></clipPath></defs><rect x="-144" width="1728" fill="#ffffff" y="-80.999999" height="971.999992" fill-opacity="1"/><rect x="-144" width="1728" fill="#000000" y="-80.999999" height="971.999992" fill-opacity="1"/><g clip-path="url(#f447b09de6)"><path fill="#eeba2b" d="M 1439.671875 533.789062 C 1439.671875 533.742188 1439.664062 533.695312 1439.652344 533.644531 C 1439.644531 533.570312 1439.625 533.492188 1439.605469 533.417969 C 1439.597656 533.367188 1439.578125 533.328125 1439.566406 533.28125 C 1439.539062 533.214844 1439.511719 533.148438 1439.480469 533.082031 C 1439.453125 533.023438 1439.425781 532.976562 1439.394531 532.925781 C 1439.367188 532.878906 1439.335938 532.832031 1439.300781 532.785156 C 1439.25 532.726562 1439.214844 532.667969 1439.15625 532.613281 C 1439.128906 532.582031 1439.089844 532.542969 1439.058594 532.515625 C 1439.003906 532.457031 1438.945312 532.410156 1438.878906 532.363281 C 1438.828125 532.332031 1438.792969 532.304688 1438.742188 532.277344 C 1438.707031 532.257812 1438.675781 532.226562 1438.636719 532.210938 C 1438.621094 532.199219 1438.589844 532.191406 1438.5625 532.179688 C 1438.496094 532.152344 1438.425781 532.121094 1438.359375 532.105469 C 1438.3125 532.085938 1438.265625 532.074219 1438.21875 532.054688 C 1438.179688 532.046875 1438.140625 532.035156 1438.101562 532.027344 L 1438.101562 499.027344 C 1438.378906 498.96875 1438.65625 498.863281 1438.90625 498.683594 C 1439.757812 498.039062 1439.933594 496.832031 1439.289062 495.980469 C 1438.992188 495.578125 1438.5625 495.339844 1438.101562 495.253906 L 1438.101562 408.792969 C 1438.1875 408.773438 1438.265625 408.753906 1438.339844 408.726562 C 1438.351562 408.726562 1438.371094 408.714844 1438.378906 408.714844 C 1438.457031 408.6875 1438.53125 408.660156 1438.601562 408.621094 C 1438.628906 408.601562 1438.667969 408.59375 1438.695312 408.574219 C 1438.742188 408.542969 1438.78125 408.515625 1438.832031 408.488281 C 1438.878906 408.449219 1438.933594 408.417969 1438.984375 408.382812 C 1439.003906 408.363281 1439.023438 408.34375 1439.039062 408.324219 C 1439.109375 408.265625 1439.164062 408.207031 1439.222656 408.140625 C 1439.234375 408.132812 1439.242188 408.113281 1439.25 408.09375 C 1439.300781 408.027344 1439.355469 407.960938 1439.394531 407.894531 C 1439.394531 407.882812 1439.40625 407.882812 1439.40625 407.875 C 1439.460938 407.777344 1439.511719 407.671875 1439.546875 407.566406 C 1439.566406 407.507812 1439.578125 407.453125 1439.597656 407.394531 C 1439.617188 407.335938 1439.632812 407.269531 1439.644531 407.210938 C 1439.652344 407.164062 1439.652344 407.117188 1439.652344 407.070312 C 1439.652344 407.011719 1439.671875 406.964844 1439.671875 406.90625 C 1439.671875 406.886719 1439.664062 406.867188 1439.664062 406.847656 C 1439.664062 406.800781 1439.652344 406.753906 1439.644531 406.703125 C 1439.632812 406.617188 1439.625 406.542969 1439.605469 406.464844 C 1439.597656 406.4375 1439.585938 406.398438 1439.578125 406.371094 C 1439.546875 406.285156 1439.519531 406.199219 1439.492188 406.109375 C 1439.472656 406.0625 1439.441406 406.023438 1439.425781 405.988281 C 1439.386719 405.917969 1439.355469 405.863281 1439.320312 405.804688 C 1439.28125 405.746094 1439.222656 405.691406 1439.175781 405.632812 C 1439.144531 405.59375 1439.117188 405.554688 1439.078125 405.527344 C 1439.023438 405.46875 1438.964844 405.429688 1438.90625 405.382812 C 1438.867188 405.355469 1438.820312 405.316406 1438.78125 405.289062 C 1438.761719 405.277344 1438.753906 405.257812 1438.734375 405.25 C 1438.6875 405.21875 1438.636719 405.210938 1438.601562 405.183594 C 1438.550781 405.152344 1438.503906 405.132812 1438.457031 405.113281 C 1438.378906 405.085938 1438.3125 405.066406 1438.234375 405.046875 C 1438.1875 405.039062 1438.140625 405.019531 1438.082031 405.007812 C 1438.015625 405 1437.949219 404.992188 1437.871094 404.992188 C 1437.824219 404.992188 1437.785156 404.980469 1437.738281 404.980469 C 1437.71875 404.980469 1437.699219 404.992188 1437.679688 404.992188 C 1437.632812 404.992188 1437.585938 405 1437.527344 405.007812 C 1437.449219 405.019531 1437.363281 405.027344 1437.289062 405.046875 C 1437.257812 405.058594 1437.222656 405.066406 1437.191406 405.078125 C 1437.105469 405.105469 1437.019531 405.125 1436.941406 405.164062 C 1436.894531 405.183594 1436.855469 405.210938 1436.820312 405.230469 C 1436.761719 405.269531 1436.695312 405.296875 1436.636719 405.335938 C 1436.570312 405.382812 1436.523438 405.429688 1436.464844 405.480469 C 1436.433594 405.507812 1436.398438 405.535156 1436.367188 405.566406 C 1436.3125 405.621094 1436.273438 405.679688 1436.222656 405.746094 C 1436.195312 405.785156 1436.15625 405.824219 1436.128906 405.871094 C 1436.121094 405.890625 1436.101562 405.902344 1436.089844 405.917969 C 1436.050781 405.976562 1436.03125 406.035156 1436.003906 406.101562 C 1435.996094 406.128906 1435.976562 406.160156 1435.964844 406.1875 C 1435.925781 406.292969 1435.890625 406.390625 1435.871094 406.503906 C 1435.871094 406.511719 1435.859375 406.53125 1435.859375 406.542969 C 1435.839844 406.65625 1435.820312 406.78125 1435.820312 406.90625 C 1435.820312 406.914062 1435.820312 406.925781 1435.820312 406.925781 C 1435.820312 407.011719 1435.832031 407.097656 1435.839844 407.183594 C 1435.839844 407.195312 1435.839844 407.210938 1435.839844 407.222656 C 1435.859375 407.316406 1435.878906 407.421875 1435.917969 407.519531 C 1435.917969 407.527344 1435.925781 407.539062 1435.925781 407.546875 C 1435.957031 407.625 1435.996094 407.703125 1436.023438 407.777344 C 1436.03125 407.804688 1436.050781 407.835938 1436.0625 407.863281 C 1436.089844 407.910156 1436.121094 407.960938 1436.15625 408.007812 C 1436.1875 408.054688 1436.222656 408.105469 1436.261719 408.152344 C 1436.28125 408.171875 1436.300781 408.199219 1436.328125 408.21875 C 1436.378906 408.265625 1436.417969 408.324219 1436.472656 408.371094 L 1360.835938 534.429688 C 1360.820312 534.421875 1360.800781 534.421875 1360.78125 534.414062 C 1360.761719 534.402344 1360.734375 534.402344 1360.714844 534.394531 C 1360.628906 534.363281 1360.539062 534.34375 1360.445312 534.335938 C 1360.398438 534.324219 1360.347656 534.324219 1360.300781 534.324219 C 1360.234375 534.324219 1360.175781 534.316406 1360.109375 534.316406 C 1360.050781 534.316406 1359.984375 534.324219 1359.929688 534.335938 C 1359.871094 534.34375 1359.824219 534.355469 1359.765625 534.363281 C 1359.707031 534.375 1359.648438 534.394531 1359.59375 534.414062 C 1359.527344 534.429688 1359.46875 534.460938 1359.402344 534.480469 C 1359.363281 534.5 1359.324219 534.507812 1359.277344 534.535156 C 1359.179688 534.585938 1359.09375 534.632812 1359.007812 534.699219 C 1359 534.710938 1358.988281 534.710938 1358.980469 534.71875 C 1358.789062 534.863281 1358.617188 535.042969 1358.492188 535.253906 C 1358.460938 535.304688 1358.441406 535.359375 1358.414062 535.410156 C 1358.386719 535.464844 1358.355469 535.515625 1358.335938 535.570312 C 1358.320312 535.628906 1358.300781 535.6875 1358.289062 535.753906 C 1358.269531 535.8125 1358.261719 535.867188 1358.25 535.925781 C 1358.242188 535.972656 1358.242188 536.023438 1358.230469 536.070312 C 1358.222656 536.144531 1358.222656 536.222656 1358.222656 536.300781 C 1358.222656 536.335938 1358.222656 536.375 1358.230469 536.40625 C 1358.242188 536.492188 1358.25 536.566406 1358.269531 536.652344 C 1358.28125 536.691406 1358.289062 536.722656 1358.300781 536.757812 C 1358.320312 536.835938 1358.347656 536.902344 1358.375 536.96875 C 1358.394531 537.019531 1358.414062 537.066406 1358.433594 537.105469 C 1358.453125 537.152344 1358.480469 537.191406 1358.511719 537.238281 C 1358.546875 537.296875 1358.585938 537.363281 1358.625 537.421875 C 1358.625 537.421875 1358.625 537.421875 1358.625 537.429688 L 1311.699219 590.910156 C 1311.488281 590.785156 1311.246094 590.699219 1311.007812 590.660156 C 1311 590.660156 1310.988281 590.660156 1310.988281 590.652344 C 1310.929688 590.640625 1310.882812 590.652344 1310.835938 590.640625 C 1310.769531 590.640625 1310.703125 590.632812 1310.625 590.632812 C 1310.558594 590.632812 1310.5 590.652344 1310.433594 590.660156 C 1310.375 590.667969 1310.316406 590.667969 1310.261719 590.6875 C 1310.183594 590.707031 1310.109375 590.738281 1310.03125 590.765625 C 1309.992188 590.785156 1309.953125 590.792969 1309.90625 590.8125 C 1309.828125 590.851562 1309.761719 590.890625 1309.6875 590.9375 C 1309.648438 590.957031 1309.617188 590.976562 1309.582031 590.996094 C 1309.570312 590.996094 1309.570312 591.003906 1309.5625 591.003906 C 1309.503906 591.054688 1309.445312 591.101562 1309.398438 591.160156 C 1309.074219 591.464844 1308.871094 591.847656 1308.804688 592.269531 C 1308.804688 592.277344 1308.804688 592.289062 1308.796875 592.289062 C 1308.785156 592.375 1308.785156 592.460938 1308.785156 592.546875 C 1308.785156 592.574219 1308.785156 592.605469 1308.785156 592.632812 C 1308.785156 592.757812 1308.804688 592.871094 1308.832031 592.988281 C 1308.832031 592.996094 1308.84375 593.007812 1308.84375 593.015625 C 1308.871094 593.121094 1308.902344 593.226562 1308.949219 593.332031 C 1308.957031 593.363281 1308.976562 593.390625 1308.988281 593.410156 C 1309.023438 593.484375 1309.074219 593.5625 1309.121094 593.640625 C 1309.128906 593.660156 1309.140625 593.675781 1309.148438 593.6875 C 1309.167969 593.714844 1309.199219 593.734375 1309.214844 593.761719 C 1309.253906 593.8125 1309.285156 593.851562 1309.332031 593.886719 C 1309.371094 593.9375 1309.417969 593.972656 1309.464844 594.011719 C 1309.503906 594.042969 1309.53125 594.070312 1309.570312 594.097656 C 1309.628906 594.136719 1309.6875 594.175781 1309.742188 594.214844 C 1309.773438 594.234375 1309.808594 594.253906 1309.839844 594.269531 C 1309.90625 594.308594 1309.972656 594.339844 1310.039062 594.359375 C 1310.058594 594.367188 1310.078125 594.375 1310.097656 594.375 L 1294.53125 704.429688 C 1293.746094 704.46875 1293.039062 704.964844 1292.777344 705.769531 C 1292.683594 706.085938 1292.683594 706.402344 1292.742188 706.699219 L 1038.21875 807.039062 C 1038.199219 807 1038.167969 806.972656 1038.140625 806.945312 C 1038.101562 806.894531 1038.074219 806.839844 1038.027344 806.800781 C 1037.996094 806.773438 1037.96875 806.742188 1037.9375 806.714844 C 1037.890625 806.667969 1037.84375 806.617188 1037.785156 806.570312 C 1037.757812 806.550781 1037.738281 806.53125 1037.710938 806.511719 C 1037.640625 806.464844 1037.574219 806.417969 1037.507812 806.378906 C 1037.480469 806.371094 1037.460938 806.359375 1037.433594 806.339844 C 1037.355469 806.300781 1037.289062 806.273438 1037.210938 806.246094 C 1037.171875 806.234375 1037.136719 806.226562 1037.097656 806.214844 C 1037.03125 806.195312 1036.972656 806.179688 1036.90625 806.167969 C 1036.828125 806.160156 1036.75 806.148438 1036.675781 806.148438 C 1036.644531 806.148438 1036.617188 806.140625 1036.589844 806.140625 C 1036.589844 806.140625 1036.578125 806.140625 1036.578125 806.140625 C 1036.347656 806.140625 1036.109375 806.179688 1035.878906 806.273438 C 1035.871094 806.273438 1035.859375 806.285156 1035.859375 806.285156 C 1035.824219 806.300781 1035.792969 806.320312 1035.753906 806.339844 C 1035.449219 806.484375 1035.191406 806.703125 1035 806.984375 C 1034.808594 807.261719 1034.691406 807.59375 1034.671875 807.960938 C 1034.671875 807.988281 1034.664062 808.015625 1034.664062 808.046875 C 1034.664062 808.054688 1034.664062 808.066406 1034.664062 808.074219 C 1034.664062 808.132812 1034.671875 808.179688 1034.683594 808.238281 C 1034.691406 808.304688 1034.691406 808.371094 1034.703125 808.4375 C 1034.710938 808.496094 1034.730469 808.554688 1034.75 808.609375 C 1034.769531 808.667969 1034.777344 808.726562 1034.796875 808.785156 C 1034.796875 808.792969 1034.808594 808.792969 1034.808594 808.800781 C 1034.835938 808.871094 1034.875 808.925781 1034.902344 808.996094 C 1034.929688 809.042969 1034.949219 809.089844 1034.980469 809.136719 C 1035.027344 809.203125 1035.074219 809.273438 1035.132812 809.328125 C 1035.160156 809.359375 1035.179688 809.398438 1035.210938 809.425781 C 1035.449219 809.664062 1035.746094 809.835938 1036.089844 809.933594 C 1036.121094 809.941406 1036.148438 809.953125 1036.175781 809.960938 C 1036.226562 809.972656 1036.28125 809.972656 1036.332031 809.980469 C 1036.40625 809.992188 1036.492188 810 1036.570312 810.007812 C 1036.570312 810.007812 1036.578125 810.007812 1036.578125 810.007812 C 1036.628906 810.007812 1036.675781 810 1036.734375 810 C 1036.820312 809.992188 1036.914062 809.980469 1037 809.960938 C 1037.097656 809.941406 1037.183594 809.914062 1037.269531 809.886719 C 1037.277344 809.886719 1037.277344 809.886719 1037.289062 809.875 C 1037.574219 809.769531 1037.816406 809.589844 1038.007812 809.367188 C 1038.027344 809.347656 1038.042969 809.328125 1038.054688 809.308594 C 1038.09375 809.261719 1038.121094 809.222656 1038.148438 809.175781 C 1038.1875 809.128906 1038.226562 809.070312 1038.253906 809.011719 C 1038.265625 808.996094 1038.273438 808.976562 1038.285156 808.957031 C 1038.371094 808.792969 1038.4375 808.621094 1038.476562 808.429688 L 1435.851562 808.429688 C 1435.851562 808.4375 1435.851562 808.4375 1435.859375 808.449219 C 1435.871094 808.496094 1435.890625 808.554688 1435.898438 808.601562 C 1435.898438 808.609375 1435.910156 808.621094 1435.910156 808.628906 C 1435.917969 808.679688 1435.9375 808.726562 1435.957031 808.765625 C 1435.964844 808.792969 1435.976562 808.8125 1435.984375 808.839844 C 1435.996094 808.859375 1436.003906 808.878906 1436.023438 808.898438 C 1436.03125 808.90625 1436.03125 808.925781 1436.042969 808.9375 C 1436.082031 809.003906 1436.121094 809.070312 1436.167969 809.136719 C 1436.175781 809.148438 1436.1875 809.167969 1436.195312 809.1875 C 1436.207031 809.203125 1436.214844 809.214844 1436.234375 809.234375 C 1436.273438 809.28125 1436.320312 809.328125 1436.359375 809.378906 C 1436.386719 809.40625 1436.40625 809.445312 1436.445312 809.472656 C 1436.453125 809.484375 1436.464844 809.484375 1436.464844 809.492188 C 1436.503906 809.53125 1436.550781 809.558594 1436.597656 809.597656 C 1436.722656 809.695312 1436.855469 809.769531 1436.992188 809.835938 C 1437.019531 809.847656 1437.039062 809.867188 1437.066406 809.875 C 1437.066406 809.875 1437.066406 809.875 1437.078125 809.875 C 1437.125 809.894531 1437.171875 809.902344 1437.222656 809.914062 C 1437.296875 809.933594 1437.375 809.960938 1437.449219 809.972656 C 1437.449219 809.972656 1437.460938 809.972656 1437.460938 809.972656 C 1437.574219 809.992188 1437.699219 810 1437.824219 809.992188 C 1437.871094 809.992188 1437.910156 809.980469 1437.957031 809.972656 C 1438.035156 809.960938 1438.113281 809.960938 1438.1875 809.941406 C 1438.273438 809.921875 1438.359375 809.894531 1438.4375 809.867188 C 1438.476562 809.855469 1438.515625 809.847656 1438.542969 809.828125 C 1438.542969 809.828125 1438.550781 809.828125 1438.550781 809.828125 C 1438.734375 809.75 1438.898438 809.636719 1439.050781 809.492188 C 1439.089844 809.464844 1439.128906 809.433594 1439.15625 809.394531 C 1439.15625 809.386719 1439.164062 809.386719 1439.175781 809.386719 C 1439.40625 809.148438 1439.546875 808.851562 1439.625 808.542969 C 1439.632812 808.496094 1439.652344 808.4375 1439.664062 808.390625 C 1439.664062 808.363281 1439.664062 808.332031 1439.671875 808.304688 C 1439.683594 808.207031 1439.691406 808.113281 1439.691406 808.007812 C 1439.691406 807.96875 1439.683594 807.921875 1439.683594 807.882812 C 1439.671875 807.804688 1439.671875 807.71875 1439.652344 807.644531 C 1439.632812 807.558594 1439.605469 807.480469 1439.578125 807.394531 C 1439.566406 807.355469 1439.558594 807.316406 1439.539062 807.28125 C 1439.519531 807.242188 1439.492188 807.203125 1439.472656 807.164062 C 1439.433594 807.089844 1439.394531 807.011719 1439.347656 806.945312 C 1439.335938 806.925781 1439.320312 806.914062 1439.308594 806.894531 C 1439.28125 806.847656 1439.242188 806.808594 1439.203125 806.773438 C 1439.183594 806.753906 1439.175781 806.734375 1439.15625 806.714844 C 1439.144531 806.703125 1439.128906 806.6875 1439.117188 806.675781 C 1439.117188 806.675781 1439.109375 806.667969 1439.109375 806.65625 C 1439.058594 806.609375 1439.003906 806.570312 1438.945312 806.523438 C 1438.933594 806.511719 1438.917969 806.503906 1438.90625 806.492188 C 1438.839844 806.445312 1438.761719 806.398438 1438.6875 806.359375 C 1438.667969 806.351562 1438.636719 806.332031 1438.621094 806.320312 C 1438.582031 806.300781 1438.550781 806.285156 1438.515625 806.273438 C 1438.503906 806.273438 1438.503906 806.265625 1438.496094 806.265625 C 1438.476562 806.253906 1438.445312 806.253906 1438.425781 806.246094 C 1438.378906 806.226562 1438.332031 806.214844 1438.285156 806.195312 C 1438.253906 806.1875 1438.226562 806.1875 1438.199219 806.179688 C 1438.1875 806.179688 1438.167969 806.167969 1438.160156 806.167969 L 1438.160156 700.1875 C 1438.1875 700.175781 1438.207031 700.167969 1438.234375 700.167969 C 1438.285156 700.15625 1438.332031 700.136719 1438.378906 700.128906 C 1438.398438 700.121094 1438.417969 700.121094 1438.4375 700.109375 C 1438.445312 700.109375 1438.457031 700.101562 1438.464844 700.101562 C 1438.503906 700.082031 1438.542969 700.0625 1438.582031 700.050781 C 1438.609375 700.042969 1438.636719 700.03125 1438.667969 700.023438 C 1438.6875 700.015625 1438.707031 699.996094 1438.722656 699.984375 C 1438.753906 699.976562 1438.773438 699.957031 1438.800781 699.945312 C 1438.820312 699.9375 1438.839844 699.917969 1438.859375 699.898438 C 1438.867188 699.898438 1438.867188 699.890625 1438.878906 699.890625 C 1438.933594 699.851562 1438.984375 699.8125 1439.039062 699.773438 C 1439.058594 699.765625 1439.070312 699.746094 1439.089844 699.726562 C 1439.117188 699.707031 1439.136719 699.679688 1439.164062 699.648438 C 1439.203125 699.613281 1439.25 699.574219 1439.289062 699.527344 C 1439.308594 699.507812 1439.320312 699.488281 1439.328125 699.46875 C 1439.355469 699.429688 1439.386719 699.390625 1439.40625 699.351562 C 1439.433594 699.316406 1439.460938 699.277344 1439.480469 699.238281 C 1439.480469 699.226562 1439.492188 699.226562 1439.492188 699.21875 C 1439.5 699.210938 1439.5 699.191406 1439.511719 699.171875 C 1439.527344 699.125 1439.558594 699.085938 1439.578125 699.035156 C 1439.597656 698.988281 1439.617188 698.949219 1439.632812 698.902344 C 1439.632812 698.894531 1439.644531 698.875 1439.644531 698.863281 C 1439.644531 698.863281 1439.644531 698.855469 1439.644531 698.855469 C 1439.664062 698.808594 1439.671875 698.75 1439.691406 698.691406 C 1439.703125 698.644531 1439.710938 698.605469 1439.710938 698.558594 C 1439.710938 698.527344 1439.722656 698.511719 1439.722656 698.480469 C 1439.730469 698.433594 1439.730469 698.386719 1439.730469 698.328125 C 1439.730469 698.308594 1439.730469 698.300781 1439.730469 698.28125 C 1439.730469 698.261719 1439.722656 698.230469 1439.722656 698.214844 C 1439.722656 698.164062 1439.710938 698.117188 1439.710938 698.058594 C 1439.710938 698.03125 1439.710938 698.011719 1439.710938 697.984375 C 1439.710938 697.964844 1439.703125 697.953125 1439.703125 697.933594 C 1439.691406 697.90625 1439.691406 697.867188 1439.683594 697.839844 C 1439.671875 697.78125 1439.652344 697.722656 1439.632812 697.667969 C 1439.625 697.628906 1439.617188 697.601562 1439.597656 697.570312 C 1439.585938 697.542969 1439.566406 697.503906 1439.558594 697.476562 C 1439.546875 697.457031 1439.546875 697.4375 1439.527344 697.410156 C 1439.511719 697.378906 1439.492188 697.351562 1439.472656 697.3125 C 1439.453125 697.285156 1439.441406 697.253906 1439.421875 697.226562 C 1439.40625 697.207031 1439.394531 697.179688 1439.375 697.160156 C 1439.335938 697.101562 1439.300781 697.054688 1439.25 697.007812 C 1439.230469 696.976562 1439.214844 696.957031 1439.183594 696.929688 C 1439.164062 696.910156 1439.15625 696.902344 1439.136719 696.882812 C 1439.089844 696.832031 1439.039062 696.796875 1438.992188 696.757812 C 1438.964844 696.726562 1438.933594 696.710938 1438.90625 696.691406 C 1438.886719 696.679688 1438.878906 696.671875 1438.867188 696.660156 C 1438.820312 696.632812 1438.773438 696.605469 1438.722656 696.585938 C 1438.675781 696.554688 1438.636719 696.535156 1438.589844 696.519531 C 1438.582031 696.519531 1438.570312 696.507812 1438.570312 696.507812 C 1438.523438 696.488281 1438.476562 696.480469 1438.425781 696.460938 C 1438.359375 696.441406 1438.292969 696.414062 1438.226562 696.394531 C 1438.207031 696.382812 1438.179688 696.382812 1438.160156 696.375 L 1438.160156 535.8125 C 1438.179688 535.8125 1438.199219 535.800781 1438.21875 535.792969 C 1438.246094 535.78125 1438.273438 535.773438 1438.3125 535.761719 C 1438.378906 535.742188 1438.457031 535.722656 1438.523438 535.695312 C 1438.582031 535.675781 1438.636719 535.636719 1438.695312 535.609375 C 1438.734375 535.589844 1438.773438 535.570312 1438.800781 535.550781 C 1438.886719 535.503906 1438.964844 535.445312 1439.039062 535.378906 C 1439.050781 535.371094 1439.050781 535.371094 1439.058594 535.359375 C 1439.136719 535.292969 1439.203125 535.226562 1439.261719 535.148438 C 1439.269531 535.140625 1439.28125 535.128906 1439.289062 535.121094 C 1439.335938 535.0625 1439.375 534.996094 1439.421875 534.929688 C 1439.441406 534.890625 1439.472656 534.863281 1439.492188 534.824219 C 1439.5 534.804688 1439.511719 534.796875 1439.519531 534.777344 C 1439.539062 534.746094 1439.539062 534.710938 1439.558594 534.679688 C 1439.585938 534.613281 1439.617188 534.546875 1439.632812 534.480469 C 1439.652344 534.429688 1439.664062 534.382812 1439.671875 534.335938 C 1439.691406 534.257812 1439.703125 534.191406 1439.710938 534.117188 C 1439.722656 534.066406 1439.722656 534.027344 1439.722656 533.980469 C 1439.722656 533.941406 1439.730469 533.914062 1439.730469 533.875 C 1439.683594 533.875 1439.671875 533.828125 1439.671875 533.789062 Z M 1436.28125 535.167969 C 1436.339844 535.234375 1436.398438 535.292969 1436.464844 535.351562 C 1436.484375 535.371094 1436.503906 535.390625 1436.511719 535.398438 C 1436.53125 535.410156 1436.539062 535.425781 1436.550781 535.4375 L 1396.347656 612.539062 C 1396.320312 612.527344 1396.300781 612.519531 1396.269531 612.511719 C 1395.339844 612.28125 1394.429688 612.730469 1394.046875 613.5625 L 1312.65625 592.664062 C 1312.65625 592.613281 1312.65625 592.558594 1312.65625 592.507812 C 1312.65625 592.46875 1312.65625 592.421875 1312.65625 592.382812 C 1312.644531 592.296875 1312.636719 592.222656 1312.617188 592.144531 C 1312.617188 592.125 1312.609375 592.097656 1312.609375 592.078125 L 1436.1875 535.042969 C 1436.195312 535.0625 1436.207031 535.074219 1436.214844 535.09375 C 1436.242188 535.113281 1436.261719 535.140625 1436.28125 535.167969 Z M 1437.25 532.066406 C 1437.203125 532.074219 1437.144531 532.09375 1437.097656 532.113281 C 1437.039062 532.132812 1436.980469 532.160156 1436.921875 532.191406 C 1436.855469 532.21875 1436.800781 532.257812 1436.742188 532.296875 C 1436.703125 532.316406 1436.664062 532.34375 1436.625 532.371094 C 1436.558594 532.417969 1436.492188 532.476562 1436.433594 532.535156 C 1436.40625 532.5625 1436.378906 532.582031 1436.359375 532.613281 C 1436.300781 532.667969 1436.253906 532.734375 1436.207031 532.804688 C 1436.175781 532.839844 1436.148438 532.890625 1436.121094 532.9375 C 1436.101562 532.976562 1436.070312 533.003906 1436.050781 533.042969 C 1436.042969 533.070312 1436.03125 533.101562 1436.015625 533.128906 C 1435.996094 533.175781 1435.976562 533.214844 1435.957031 533.261719 C 1435.925781 533.328125 1435.910156 533.398438 1435.890625 533.464844 C 1435.878906 533.511719 1435.859375 533.558594 1435.859375 533.617188 C 1435.851562 533.683594 1435.839844 533.75 1435.839844 533.820312 C 1435.839844 533.855469 1435.832031 533.894531 1435.832031 533.933594 C 1435.832031 533.953125 1435.832031 533.972656 1435.839844 533.992188 C 1435.839844 534.027344 1435.851562 534.058594 1435.851562 534.097656 C 1435.859375 534.171875 1435.871094 534.257812 1435.878906 534.335938 C 1435.878906 534.355469 1435.890625 534.375 1435.898438 534.394531 C 1435.898438 534.394531 1435.898438 534.402344 1435.898438 534.402344 L 1313.671875 590.8125 L 1436.472656 498.578125 C 1436.742188 498.828125 1437.066406 498.980469 1437.414062 499.046875 L 1437.414062 532.046875 C 1437.34375 532.035156 1437.296875 532.046875 1437.25 532.066406 Z M 1396.320312 616.226562 L 1436.578125 696.746094 C 1436.558594 696.765625 1436.539062 696.785156 1436.523438 696.796875 L 1312.417969 593.476562 C 1312.425781 593.457031 1312.433594 593.429688 1312.445312 593.410156 C 1312.453125 593.390625 1312.464844 593.371094 1312.472656 593.363281 L 1393.867188 614.261719 C 1393.808594 615.183594 1394.394531 616.007812 1395.3125 616.253906 C 1395.667969 616.332031 1396.003906 616.320312 1396.320312 616.226562 Z M 1344.515625 769.980469 L 1346.640625 724.34375 C 1346.707031 724.335938 1346.765625 724.316406 1346.832031 724.296875 C 1346.871094 724.289062 1346.910156 724.277344 1346.949219 724.269531 C 1347.015625 724.25 1347.082031 724.21875 1347.140625 724.191406 C 1347.226562 724.152344 1347.3125 724.105469 1347.390625 724.058594 C 1347.425781 724.039062 1347.464844 724.007812 1347.496094 723.988281 L 1436.109375 807.03125 C 1436.109375 807.039062 1436.101562 807.039062 1436.101562 807.050781 L 1345.953125 772.210938 C 1345.972656 772.125 1345.992188 772.039062 1345.992188 771.953125 C 1346.039062 771.011719 1345.398438 770.191406 1344.515625 769.980469 Z M 1437.394531 700.1875 L 1437.394531 806.167969 C 1437.394531 806.167969 1437.382812 806.167969 1437.382812 806.167969 C 1437.363281 806.167969 1437.335938 806.167969 1437.316406 806.179688 L 1392.871094 705.464844 L 1435.9375 698.921875 C 1435.9375 698.921875 1435.9375 698.929688 1435.9375 698.929688 C 1435.945312 698.96875 1435.964844 699.007812 1435.984375 699.035156 C 1436.003906 699.074219 1436.015625 699.113281 1436.03125 699.140625 C 1436.042969 699.160156 1436.050781 699.171875 1436.0625 699.191406 C 1436.070312 699.199219 1436.070312 699.21875 1436.082031 699.226562 C 1436.109375 699.277344 1436.148438 699.324219 1436.175781 699.371094 C 1436.207031 699.410156 1436.234375 699.457031 1436.261719 699.496094 C 1436.261719 699.496094 1436.273438 699.507812 1436.273438 699.507812 C 1436.320312 699.5625 1436.378906 699.613281 1436.425781 699.667969 C 1436.425781 699.667969 1436.425781 699.667969 1436.433594 699.679688 C 1436.472656 699.71875 1436.503906 699.746094 1436.550781 699.785156 C 1436.589844 699.8125 1436.625 699.839844 1436.664062 699.859375 C 1436.703125 699.890625 1436.742188 699.917969 1436.78125 699.9375 C 1436.789062 699.945312 1436.800781 699.945312 1436.808594 699.957031 C 1436.835938 699.976562 1436.867188 699.984375 1436.886719 699.996094 C 1436.894531 699.996094 1436.90625 700.003906 1436.90625 700.003906 C 1436.960938 700.03125 1437.011719 700.0625 1437.066406 700.082031 C 1437.085938 700.089844 1437.105469 700.089844 1437.125 700.101562 C 1437.152344 700.109375 1437.183594 700.121094 1437.210938 700.121094 C 1437.257812 700.15625 1437.316406 700.175781 1437.394531 700.1875 C 1437.382812 700.1875 1437.394531 700.1875 1437.394531 700.1875 Z M 1436.015625 697.457031 C 1435.996094 697.484375 1435.976562 697.523438 1435.964844 697.550781 C 1435.917969 697.65625 1435.878906 697.773438 1435.859375 697.898438 C 1435.859375 697.90625 1435.859375 697.925781 1435.851562 697.933594 C 1435.839844 698.003906 1435.832031 698.058594 1435.820312 698.125 C 1435.820312 698.144531 1435.8125 698.15625 1435.8125 698.175781 C 1435.8125 698.183594 1435.8125 698.203125 1435.8125 698.214844 L 1392.507812 704.792969 L 1312.703125 594.644531 L 1436.070312 697.351562 C 1436.050781 697.390625 1436.03125 697.425781 1436.015625 697.457031 Z M 1392.152344 705.644531 L 1436.65625 806.484375 C 1436.636719 806.492188 1436.625 806.503906 1436.609375 806.511719 L 1347.992188 723.472656 C 1348.003906 723.453125 1348.011719 723.425781 1348.03125 723.40625 C 1348.050781 723.378906 1348.058594 723.347656 1348.078125 723.320312 C 1348.117188 723.242188 1348.15625 723.15625 1348.183594 723.070312 C 1348.195312 723.050781 1348.203125 723.03125 1348.210938 723.003906 C 1348.222656 722.984375 1348.222656 722.964844 1348.222656 722.945312 C 1348.25 722.859375 1348.261719 722.765625 1348.28125 722.667969 C 1348.28125 722.640625 1348.289062 722.609375 1348.289062 722.582031 C 1348.289062 722.5625 1348.300781 722.535156 1348.300781 722.515625 C 1348.300781 722.457031 1348.289062 722.398438 1348.289062 722.34375 C 1348.289062 722.285156 1348.289062 722.238281 1348.28125 722.179688 C 1348.28125 722.152344 1348.269531 722.121094 1348.269531 722.09375 Z M 1391.777344 705.015625 L 1348.011719 721.421875 C 1347.992188 721.394531 1347.972656 721.375 1347.953125 721.347656 C 1347.914062 721.289062 1347.867188 721.230469 1347.820312 721.175781 C 1347.78125 721.125 1347.742188 721.085938 1347.695312 721.050781 C 1347.648438 721.011719 1347.609375 720.964844 1347.5625 720.925781 C 1347.503906 720.878906 1347.4375 720.839844 1347.371094 720.789062 C 1347.332031 720.773438 1347.292969 720.742188 1347.253906 720.722656 C 1347.179688 720.683594 1347.101562 720.65625 1347.023438 720.628906 C 1346.988281 720.617188 1346.957031 720.597656 1346.929688 720.589844 C 1346.910156 720.589844 1346.898438 720.578125 1346.882812 720.578125 C 1346.8125 720.5625 1346.757812 720.550781 1346.691406 720.542969 C 1346.632812 720.53125 1346.585938 720.523438 1346.527344 720.523438 C 1346.496094 720.523438 1346.46875 720.511719 1346.441406 720.511719 C 1346.402344 720.511719 1346.363281 720.523438 1346.335938 720.523438 C 1346.289062 720.523438 1346.25 720.523438 1346.199219 720.523438 L 1311.59375 594.367188 Z M 1344.6875 723.378906 C 1344.714844 723.433594 1344.753906 723.492188 1344.792969 723.550781 C 1344.820312 723.585938 1344.839844 723.617188 1344.871094 723.65625 C 1344.90625 723.703125 1344.945312 723.75 1344.992188 723.789062 C 1345.03125 723.828125 1345.070312 723.867188 1345.117188 723.894531 C 1345.15625 723.921875 1345.195312 723.953125 1345.234375 723.988281 C 1345.292969 724.027344 1345.347656 724.066406 1345.40625 724.105469 C 1345.433594 724.125 1345.472656 724.144531 1345.511719 724.164062 C 1345.578125 724.191406 1345.644531 724.21875 1345.710938 724.25 C 1345.742188 724.257812 1345.761719 724.269531 1345.789062 724.277344 C 1345.808594 724.289062 1345.816406 724.289062 1345.835938 724.289062 C 1345.867188 724.296875 1345.886719 724.304688 1345.914062 724.316406 L 1343.789062 769.949219 C 1342.90625 770.074219 1342.195312 770.8125 1342.140625 771.722656 L 1041.214844 807.164062 L 1344.640625 723.28125 C 1344.660156 723.308594 1344.679688 723.347656 1344.6875 723.378906 Z M 1342.234375 772.441406 C 1342.476562 773.1875 1343.15625 773.753906 1343.980469 773.792969 C 1344.695312 773.820312 1345.339844 773.445312 1345.703125 772.882812 L 1435.832031 807.71875 L 1042.699219 807.71875 Z M 1437.394531 535.8125 L 1437.394531 696.394531 C 1437.363281 696.402344 1437.335938 696.414062 1437.296875 696.414062 C 1437.269531 696.421875 1437.25 696.421875 1437.222656 696.429688 L 1396.960938 615.902344 C 1397.285156 615.652344 1397.542969 615.296875 1397.667969 614.855469 C 1397.859375 614.082031 1397.574219 613.324219 1396.988281 612.863281 L 1437.191406 535.761719 C 1437.210938 535.773438 1437.238281 535.773438 1437.257812 535.773438 C 1437.308594 535.792969 1437.34375 535.8125 1437.394531 535.8125 Z M 1359.179688 537.878906 C 1359.257812 537.929688 1359.34375 537.964844 1359.429688 538.003906 C 1359.449219 538.015625 1359.46875 538.023438 1359.488281 538.03125 C 1359.542969 538.050781 1359.613281 538.070312 1359.667969 538.082031 C 1359.726562 538.101562 1359.785156 538.109375 1359.839844 538.121094 C 1359.890625 538.128906 1359.9375 538.128906 1359.976562 538.128906 C 1360.050781 538.136719 1360.128906 538.136719 1360.207031 538.136719 C 1360.242188 538.136719 1360.273438 538.136719 1360.3125 538.128906 C 1360.398438 538.121094 1360.484375 538.109375 1360.558594 538.089844 C 1360.597656 538.082031 1360.628906 538.070312 1360.664062 538.0625 C 1360.742188 538.042969 1360.808594 538.015625 1360.886719 537.984375 C 1360.933594 537.964844 1360.980469 537.945312 1361.019531 537.929688 C 1361.066406 537.898438 1361.117188 537.871094 1361.164062 537.839844 C 1361.222656 537.804688 1361.289062 537.765625 1361.335938 537.726562 C 1361.363281 537.707031 1361.382812 537.679688 1361.414062 537.660156 C 1361.46875 537.601562 1361.535156 537.554688 1361.59375 537.496094 C 1361.59375 537.496094 1361.605469 537.488281 1361.605469 537.488281 C 1361.625 537.457031 1361.640625 537.429688 1361.660156 537.402344 C 1361.710938 537.332031 1361.765625 537.277344 1361.804688 537.210938 C 1361.816406 537.199219 1361.816406 537.191406 1361.824219 537.171875 C 1361.835938 537.152344 1361.84375 537.132812 1361.851562 537.125 C 1361.902344 537.027344 1361.949219 536.929688 1361.976562 536.835938 C 1361.988281 536.808594 1361.988281 536.789062 1361.996094 536.757812 C 1362.027344 536.671875 1362.042969 536.585938 1362.054688 536.511719 C 1362.0625 536.460938 1362.0625 536.414062 1362.0625 536.367188 C 1362.0625 536.308594 1362.074219 536.242188 1362.074219 536.183594 C 1362.074219 536.125 1362.0625 536.058594 1362.0625 536.003906 C 1362.054688 535.945312 1362.042969 535.898438 1362.035156 535.847656 C 1362.027344 535.792969 1362.007812 535.734375 1361.988281 535.675781 C 1361.96875 535.609375 1361.9375 535.550781 1361.921875 535.484375 C 1361.902344 535.445312 1361.890625 535.398438 1361.863281 535.359375 C 1361.816406 535.265625 1361.757812 535.167969 1361.691406 535.074219 C 1361.691406 535.074219 1361.691406 535.0625 1361.679688 535.0625 C 1361.605469 534.957031 1361.519531 534.863281 1361.421875 534.777344 L 1437.058594 408.714844 C 1437.152344 408.753906 1437.257812 408.785156 1437.363281 408.804688 L 1437.363281 495.253906 C 1437.085938 495.3125 1436.808594 495.417969 1436.558594 495.597656 C 1435.8125 496.164062 1435.582031 497.179688 1435.984375 497.992188 L 1313.257812 590.171875 Z M 1310.824219 594.464844 C 1310.84375 594.464844 1310.855469 594.453125 1310.875 594.453125 C 1310.882812 594.453125 1310.882812 594.453125 1310.894531 594.453125 L 1345.53125 720.695312 C 1345.492188 720.714844 1345.453125 720.734375 1345.414062 720.753906 C 1345.40625 720.761719 1345.386719 720.761719 1345.367188 720.773438 C 1345.167969 720.894531 1344.996094 721.050781 1344.851562 721.242188 C 1344.8125 721.289062 1344.785156 721.347656 1344.746094 721.402344 C 1344.726562 721.441406 1344.695312 721.472656 1344.679688 721.507812 L 1296.574219 706.546875 C 1296.675781 705.65625 1296.160156 704.8125 1295.277344 704.507812 Z M 1294.070312 708.183594 C 1294.992188 708.453125 1295.921875 708.058594 1296.351562 707.246094 L 1344.457031 722.207031 C 1344.457031 722.226562 1344.457031 722.246094 1344.457031 722.257812 C 1344.457031 722.285156 1344.449219 722.304688 1344.449219 722.332031 C 1344.449219 722.378906 1344.457031 722.417969 1344.457031 722.46875 C 1344.457031 722.503906 1344.457031 722.542969 1344.457031 722.582031 L 1043.027344 805.917969 L 1293.019531 707.371094 C 1293.25 707.734375 1293.601562 708.03125 1294.070312 708.183594 Z M 1294.070312 708.183594 " fill-opacity="1" fill-rule="nonzero"/></g><g clip-path="url(#2e41f75a8a)"><path fill="#eeba2b" d="M 0.316406 276.210938 C 0.316406 276.257812 0.328125 276.304688 0.335938 276.355469 C 0.347656 276.429688 0.363281 276.507812 0.382812 276.582031 C 0.394531 276.632812 0.414062 276.671875 0.421875 276.71875 C 0.453125 276.785156 0.480469 276.851562 0.507812 276.917969 C 0.539062 276.976562 0.566406 277.023438 0.59375 277.074219 C 0.625 277.121094 0.652344 277.167969 0.691406 277.214844 C 0.738281 277.273438 0.777344 277.332031 0.835938 277.386719 C 0.863281 277.417969 0.902344 277.457031 0.929688 277.484375 C 0.988281 277.542969 1.046875 277.589844 1.113281 277.636719 C 1.160156 277.667969 1.199219 277.695312 1.246094 277.722656 C 1.285156 277.742188 1.3125 277.773438 1.351562 277.789062 C 1.371094 277.800781 1.398438 277.808594 1.429688 277.820312 C 1.496094 277.847656 1.5625 277.878906 1.628906 277.894531 C 1.675781 277.914062 1.726562 277.925781 1.773438 277.945312 C 1.8125 277.953125 1.851562 277.964844 1.886719 277.972656 L 1.886719 310.972656 C 1.609375 311.03125 1.332031 311.136719 1.082031 311.316406 C 0.230469 311.960938 0.0585938 313.167969 0.699219 314.019531 C 0.996094 314.421875 1.429688 314.660156 1.886719 314.746094 L 1.886719 401.207031 C 1.800781 401.226562 1.726562 401.246094 1.648438 401.273438 C 1.640625 401.273438 1.621094 401.285156 1.609375 401.285156 C 1.535156 401.3125 1.457031 401.339844 1.390625 401.378906 C 1.363281 401.398438 1.324219 401.40625 1.292969 401.425781 C 1.246094 401.457031 1.207031 401.484375 1.160156 401.511719 C 1.113281 401.550781 1.054688 401.582031 1.007812 401.617188 C 0.988281 401.636719 0.96875 401.65625 0.949219 401.675781 C 0.882812 401.734375 0.824219 401.792969 0.765625 401.859375 C 0.757812 401.867188 0.75 401.886719 0.738281 401.90625 C 0.691406 401.972656 0.632812 402.039062 0.59375 402.105469 C 0.59375 402.117188 0.585938 402.117188 0.585938 402.125 C 0.527344 402.222656 0.480469 402.328125 0.441406 402.433594 C 0.421875 402.492188 0.414062 402.546875 0.394531 402.605469 C 0.375 402.664062 0.355469 402.730469 0.347656 402.789062 C 0.335938 402.835938 0.335938 402.882812 0.335938 402.929688 C 0.335938 402.988281 0.316406 403.035156 0.316406 403.09375 C 0.316406 403.113281 0.328125 403.132812 0.328125 403.152344 C 0.328125 403.199219 0.335938 403.246094 0.347656 403.296875 C 0.355469 403.382812 0.363281 403.457031 0.382812 403.535156 C 0.394531 403.5625 0.402344 403.601562 0.414062 403.628906 C 0.441406 403.714844 0.46875 403.800781 0.5 403.890625 C 0.519531 403.9375 0.546875 403.976562 0.566406 404.011719 C 0.605469 404.082031 0.632812 404.136719 0.671875 404.195312 C 0.710938 404.253906 0.765625 404.308594 0.816406 404.367188 C 0.84375 404.40625 0.871094 404.445312 0.910156 404.472656 C 0.96875 404.53125 1.027344 404.570312 1.082031 404.617188 C 1.121094 404.644531 1.167969 404.683594 1.207031 404.710938 C 1.226562 404.722656 1.238281 404.742188 1.257812 404.75 C 1.304688 404.78125 1.351562 404.789062 1.390625 404.816406 C 1.4375 404.847656 1.484375 404.867188 1.535156 404.886719 C 1.609375 404.914062 1.675781 404.933594 1.753906 404.953125 C 1.800781 404.960938 1.851562 404.980469 1.90625 404.992188 C 1.972656 405 2.042969 405.007812 2.117188 405.007812 C 2.167969 405.007812 2.203125 405.019531 2.253906 405.019531 C 2.269531 405.019531 2.289062 405.007812 2.308594 405.007812 C 2.359375 405.007812 2.40625 405 2.464844 404.992188 C 2.539062 404.980469 2.625 404.972656 2.703125 404.953125 C 2.730469 404.941406 2.769531 404.933594 2.796875 404.921875 C 2.882812 404.894531 2.96875 404.875 3.046875 404.835938 C 3.09375 404.816406 3.132812 404.789062 3.171875 404.769531 C 3.230469 404.730469 3.296875 404.703125 3.355469 404.664062 C 3.421875 404.617188 3.46875 404.570312 3.527344 404.519531 C 3.554688 404.492188 3.59375 404.464844 3.621094 404.433594 C 3.679688 404.378906 3.71875 404.320312 3.765625 404.253906 C 3.792969 404.214844 3.832031 404.175781 3.863281 404.128906 C 3.871094 404.109375 3.890625 404.097656 3.898438 404.082031 C 3.9375 404.023438 3.957031 403.964844 3.984375 403.898438 C 3.996094 403.871094 4.015625 403.839844 4.023438 403.8125 C 4.0625 403.707031 4.101562 403.609375 4.121094 403.496094 C 4.121094 403.488281 4.128906 403.46875 4.128906 403.457031 C 4.148438 403.34375 4.167969 403.21875 4.167969 403.09375 C 4.167969 403.085938 4.167969 403.074219 4.167969 403.074219 C 4.167969 402.988281 4.160156 402.902344 4.148438 402.816406 C 4.148438 402.804688 4.148438 402.789062 4.148438 402.777344 C 4.128906 402.683594 4.109375 402.578125 4.074219 402.480469 C 4.074219 402.472656 4.0625 402.460938 4.0625 402.453125 C 4.035156 402.375 3.996094 402.296875 3.96875 402.222656 C 3.957031 402.195312 3.9375 402.164062 3.929688 402.136719 C 3.898438 402.089844 3.871094 402.039062 3.832031 401.992188 C 3.804688 401.945312 3.765625 401.894531 3.726562 401.847656 C 3.707031 401.828125 3.6875 401.800781 3.660156 401.78125 C 3.613281 401.734375 3.574219 401.675781 3.515625 401.628906 L 79.152344 275.570312 C 79.171875 275.578125 79.191406 275.578125 79.210938 275.585938 C 79.230469 275.597656 79.257812 275.597656 79.277344 275.605469 C 79.363281 275.636719 79.449219 275.65625 79.546875 275.664062 C 79.59375 275.675781 79.640625 275.675781 79.6875 275.675781 C 79.757812 275.675781 79.8125 275.683594 79.878906 275.683594 C 79.9375 275.683594 80.003906 275.675781 80.0625 275.664062 C 80.121094 275.65625 80.167969 275.644531 80.226562 275.636719 C 80.28125 275.625 80.339844 275.605469 80.398438 275.585938 C 80.464844 275.570312 80.523438 275.539062 80.589844 275.519531 C 80.628906 275.5 80.664062 275.492188 80.714844 275.464844 C 80.808594 275.414062 80.894531 275.367188 80.980469 275.300781 C 80.992188 275.289062 81 275.289062 81.011719 275.28125 C 81.203125 275.136719 81.375 274.957031 81.5 274.746094 C 81.527344 274.695312 81.546875 274.640625 81.574219 274.589844 C 81.605469 274.535156 81.632812 274.484375 81.652344 274.429688 C 81.671875 274.371094 81.691406 274.3125 81.699219 274.246094 C 81.71875 274.1875 81.730469 274.132812 81.738281 274.074219 C 81.75 274.027344 81.75 273.976562 81.757812 273.929688 C 81.769531 273.855469 81.769531 273.777344 81.769531 273.699219 C 81.769531 273.664062 81.769531 273.625 81.757812 273.59375 C 81.75 273.507812 81.738281 273.433594 81.71875 273.347656 C 81.710938 273.308594 81.699219 273.277344 81.691406 273.242188 C 81.671875 273.164062 81.644531 273.097656 81.613281 273.03125 C 81.59375 272.980469 81.574219 272.933594 81.558594 272.894531 C 81.539062 272.847656 81.507812 272.808594 81.480469 272.761719 C 81.441406 272.703125 81.402344 272.636719 81.367188 272.578125 C 81.367188 272.578125 81.367188 272.578125 81.367188 272.570312 L 128.292969 219.089844 C 128.503906 219.214844 128.742188 219.300781 128.984375 219.339844 C 128.992188 219.339844 129 219.339844 129 219.347656 C 129.058594 219.359375 129.105469 219.347656 129.15625 219.359375 C 129.222656 219.359375 129.289062 219.367188 129.367188 219.367188 C 129.433594 219.367188 129.488281 219.347656 129.558594 219.339844 C 129.613281 219.332031 129.671875 219.332031 129.730469 219.3125 C 129.804688 219.292969 129.882812 219.261719 129.960938 219.234375 C 129.996094 219.214844 130.035156 219.207031 130.085938 219.1875 C 130.160156 219.148438 130.226562 219.109375 130.304688 219.0625 C 130.34375 219.042969 130.371094 219.023438 130.410156 219.003906 C 130.417969 219.003906 130.417969 218.996094 130.429688 218.996094 C 130.488281 218.945312 130.542969 218.898438 130.589844 218.839844 C 130.917969 218.535156 131.117188 218.152344 131.1875 217.730469 C 131.1875 217.722656 131.1875 217.710938 131.195312 217.710938 C 131.203125 217.625 131.203125 217.539062 131.203125 217.453125 C 131.203125 217.425781 131.203125 217.394531 131.203125 217.367188 C 131.203125 217.242188 131.1875 217.128906 131.15625 217.011719 C 131.15625 217.003906 131.148438 216.992188 131.148438 216.984375 C 131.117188 216.878906 131.089844 216.773438 131.042969 216.667969 C 131.03125 216.636719 131.011719 216.609375 131.003906 216.589844 C 130.964844 216.515625 130.917969 216.4375 130.871094 216.359375 C 130.859375 216.339844 130.851562 216.324219 130.839844 216.3125 C 130.820312 216.285156 130.792969 216.265625 130.773438 216.238281 C 130.734375 216.1875 130.707031 216.148438 130.660156 216.113281 C 130.621094 216.0625 130.574219 216.027344 130.523438 215.988281 C 130.488281 215.957031 130.457031 215.929688 130.417969 215.902344 C 130.363281 215.863281 130.304688 215.824219 130.246094 215.785156 C 130.21875 215.765625 130.179688 215.746094 130.152344 215.730469 C 130.085938 215.691406 130.015625 215.660156 129.949219 215.640625 C 129.929688 215.632812 129.910156 215.625 129.890625 215.625 L 145.457031 105.570312 C 146.242188 105.53125 146.953125 105.035156 147.210938 104.230469 C 147.308594 103.914062 147.308594 103.597656 147.25 103.300781 L 401.773438 2.960938 C 401.792969 3 401.820312 3.027344 401.851562 3.054688 C 401.886719 3.105469 401.917969 3.160156 401.964844 3.199219 C 401.992188 3.226562 402.023438 3.257812 402.050781 3.285156 C 402.097656 3.332031 402.148438 3.382812 402.203125 3.429688 C 402.234375 3.449219 402.253906 3.46875 402.28125 3.488281 C 402.347656 3.535156 402.414062 3.582031 402.480469 3.621094 C 402.511719 3.628906 402.53125 3.640625 402.558594 3.660156 C 402.636719 3.699219 402.703125 3.726562 402.777344 3.753906 C 402.816406 3.765625 402.855469 3.773438 402.894531 3.785156 C 402.960938 3.804688 403.019531 3.820312 403.085938 3.832031 C 403.160156 3.839844 403.238281 3.851562 403.316406 3.851562 C 403.34375 3.851562 403.371094 3.859375 403.402344 3.859375 C 403.402344 3.859375 403.410156 3.859375 403.410156 3.859375 C 403.640625 3.859375 403.878906 3.820312 404.109375 3.726562 C 404.121094 3.726562 404.128906 3.714844 404.128906 3.714844 C 404.167969 3.699219 404.195312 3.679688 404.234375 3.660156 C 404.542969 3.515625 404.800781 3.296875 404.992188 3.015625 C 405.183594 2.738281 405.296875 2.40625 405.316406 2.039062 C 405.316406 2.011719 405.328125 1.984375 405.328125 1.953125 C 405.328125 1.945312 405.328125 1.933594 405.328125 1.925781 C 405.328125 1.867188 405.316406 1.820312 405.308594 1.761719 C 405.296875 1.695312 405.296875 1.628906 405.289062 1.5625 C 405.277344 1.503906 405.261719 1.445312 405.242188 1.390625 C 405.222656 1.332031 405.210938 1.273438 405.191406 1.214844 C 405.191406 1.207031 405.183594 1.207031 405.183594 1.199219 C 405.15625 1.128906 405.117188 1.074219 405.085938 1.003906 C 405.058594 0.957031 405.039062 0.910156 405.011719 0.863281 C 404.964844 0.796875 404.914062 0.726562 404.859375 0.671875 C 404.828125 0.640625 404.808594 0.601562 404.78125 0.574219 C 404.542969 0.335938 404.246094 0.164062 403.898438 0.0664062 C 403.871094 0.0585938 403.84375 0.046875 403.8125 0.0390625 C 403.765625 0.0273438 403.707031 0.0273438 403.660156 0.0195312 C 403.582031 0.0078125 403.496094 0 403.421875 -0.0078125 C 403.421875 -0.0078125 403.410156 -0.0078125 403.410156 -0.0078125 C 403.363281 -0.0078125 403.316406 0 403.257812 0 C 403.171875 0.0078125 403.074219 0.0195312 402.988281 0.0390625 C 402.894531 0.0585938 402.808594 0.0859375 402.722656 0.113281 C 402.710938 0.113281 402.710938 0.113281 402.703125 0.125 C 402.414062 0.230469 402.175781 0.410156 401.984375 0.632812 C 401.964844 0.652344 401.945312 0.671875 401.9375 0.691406 C 401.898438 0.738281 401.867188 0.777344 401.839844 0.824219 C 401.800781 0.871094 401.761719 0.929688 401.734375 0.988281 C 401.726562 1.003906 401.714844 1.023438 401.707031 1.042969 C 401.621094 1.207031 401.554688 1.378906 401.515625 1.570312 L 4.140625 1.570312 C 4.140625 1.5625 4.140625 1.5625 4.128906 1.550781 C 4.121094 1.503906 4.101562 1.445312 4.089844 1.398438 C 4.089844 1.390625 4.082031 1.378906 4.082031 1.371094 C 4.070312 1.320312 4.054688 1.273438 4.035156 1.234375 C 4.023438 1.207031 4.015625 1.1875 4.003906 1.160156 C 3.996094 1.140625 3.984375 1.121094 3.96875 1.101562 C 3.957031 1.09375 3.957031 1.074219 3.949219 1.0625 C 3.910156 0.996094 3.871094 0.929688 3.824219 0.863281 C 3.8125 0.851562 3.804688 0.832031 3.792969 0.8125 C 3.785156 0.796875 3.773438 0.785156 3.757812 0.765625 C 3.71875 0.71875 3.671875 0.671875 3.632812 0.621094 C 3.601562 0.59375 3.582031 0.554688 3.546875 0.527344 C 3.535156 0.515625 3.527344 0.515625 3.527344 0.507812 C 3.488281 0.46875 3.441406 0.441406 3.390625 0.402344 C 3.269531 0.304688 3.132812 0.230469 3 0.164062 C 2.96875 0.152344 2.953125 0.132812 2.921875 0.125 C 2.921875 0.125 2.921875 0.125 2.914062 0.125 C 2.867188 0.105469 2.816406 0.0976562 2.769531 0.0859375 C 2.691406 0.0664062 2.617188 0.0390625 2.539062 0.0273438 C 2.539062 0.0273438 2.53125 0.0273438 2.53125 0.0273438 C 2.414062 0.0078125 2.289062 0 2.167969 0.0078125 C 2.117188 0.0078125 2.078125 0.0195312 2.03125 0.0273438 C 1.957031 0.0390625 1.878906 0.0390625 1.800781 0.0585938 C 1.714844 0.078125 1.628906 0.105469 1.554688 0.132812 C 1.515625 0.144531 1.476562 0.152344 1.449219 0.171875 C 1.449219 0.171875 1.4375 0.171875 1.4375 0.171875 C 1.257812 0.25 1.09375 0.363281 0.941406 0.507812 C 0.902344 0.535156 0.863281 0.566406 0.835938 0.605469 C 0.835938 0.613281 0.824219 0.613281 0.816406 0.613281 C 0.585938 0.851562 0.441406 1.148438 0.363281 1.457031 C 0.355469 1.503906 0.335938 1.5625 0.328125 1.609375 C 0.328125 1.636719 0.328125 1.667969 0.316406 1.695312 C 0.308594 1.792969 0.296875 1.886719 0.296875 1.992188 C 0.296875 2.03125 0.308594 2.078125 0.308594 2.117188 C 0.316406 2.195312 0.316406 2.28125 0.335938 2.355469 C 0.355469 2.441406 0.382812 2.519531 0.414062 2.605469 C 0.421875 2.644531 0.433594 2.683594 0.453125 2.71875 C 0.46875 2.757812 0.5 2.796875 0.519531 2.835938 C 0.558594 2.910156 0.59375 2.988281 0.644531 3.054688 C 0.652344 3.074219 0.671875 3.085938 0.679688 3.105469 C 0.710938 3.152344 0.75 3.191406 0.785156 3.226562 C 0.804688 3.246094 0.816406 3.265625 0.835938 3.285156 C 0.84375 3.296875 0.863281 3.3125 0.871094 3.324219 C 0.871094 3.324219 0.882812 3.332031 0.882812 3.34375 C 0.929688 3.390625 0.988281 3.429688 1.046875 3.476562 C 1.054688 3.488281 1.074219 3.496094 1.082031 3.507812 C 1.152344 3.554688 1.226562 3.601562 1.304688 3.640625 C 1.324219 3.648438 1.351562 3.667969 1.371094 3.679688 C 1.410156 3.699219 1.4375 3.714844 1.476562 3.726562 C 1.484375 3.726562 1.484375 3.734375 1.496094 3.734375 C 1.515625 3.746094 1.542969 3.746094 1.5625 3.753906 C 1.609375 3.773438 1.660156 3.785156 1.707031 3.804688 C 1.734375 3.8125 1.765625 3.8125 1.792969 3.820312 C 1.800781 3.820312 1.820312 3.832031 1.832031 3.832031 L 1.832031 109.8125 C 1.800781 109.824219 1.78125 109.832031 1.753906 109.832031 C 1.707031 109.84375 1.660156 109.863281 1.609375 109.871094 C 1.589844 109.878906 1.570312 109.878906 1.554688 109.890625 C 1.542969 109.890625 1.535156 109.898438 1.523438 109.898438 C 1.484375 109.917969 1.449219 109.9375 1.410156 109.949219 C 1.378906 109.957031 1.351562 109.96875 1.324219 109.976562 C 1.304688 109.984375 1.285156 110.003906 1.265625 110.015625 C 1.238281 110.023438 1.21875 110.042969 1.1875 110.054688 C 1.171875 110.0625 1.152344 110.082031 1.132812 110.101562 C 1.121094 110.101562 1.121094 110.109375 1.113281 110.109375 C 1.054688 110.148438 1.007812 110.1875 0.949219 110.226562 C 0.929688 110.234375 0.921875 110.253906 0.902344 110.273438 C 0.871094 110.292969 0.855469 110.320312 0.824219 110.351562 C 0.785156 110.386719 0.738281 110.425781 0.699219 110.472656 C 0.679688 110.492188 0.671875 110.511719 0.664062 110.53125 C 0.632812 110.570312 0.605469 110.609375 0.585938 110.648438 C 0.558594 110.683594 0.527344 110.722656 0.507812 110.761719 C 0.507812 110.773438 0.5 110.773438 0.5 110.78125 C 0.488281 110.789062 0.488281 110.808594 0.480469 110.828125 C 0.460938 110.875 0.433594 110.914062 0.414062 110.964844 C 0.394531 111.011719 0.375 111.050781 0.355469 111.097656 C 0.355469 111.105469 0.347656 111.125 0.347656 111.136719 C 0.347656 111.136719 0.347656 111.144531 0.347656 111.144531 C 0.328125 111.191406 0.316406 111.25 0.296875 111.308594 C 0.289062 111.355469 0.277344 111.394531 0.277344 111.441406 C 0.277344 111.472656 0.269531 111.488281 0.269531 111.519531 C 0.261719 111.566406 0.261719 111.613281 0.261719 111.671875 C 0.261719 111.691406 0.261719 111.699219 0.261719 111.71875 C 0.261719 111.738281 0.269531 111.769531 0.269531 111.785156 C 0.269531 111.835938 0.277344 111.882812 0.277344 111.941406 C 0.277344 111.96875 0.277344 111.988281 0.277344 112.015625 C 0.277344 112.035156 0.289062 112.046875 0.289062 112.066406 C 0.296875 112.09375 0.296875 112.132812 0.308594 112.160156 C 0.316406 112.21875 0.335938 112.277344 0.355469 112.332031 C 0.367188 112.371094 0.375 112.398438 0.394531 112.429688 C 0.402344 112.457031 0.421875 112.496094 0.433594 112.523438 C 0.441406 112.542969 0.441406 112.5625 0.460938 112.589844 C 0.480469 112.621094 0.5 112.648438 0.519531 112.6875 C 0.539062 112.714844 0.546875 112.746094 0.566406 112.773438 C 0.585938 112.792969 0.59375 112.820312 0.613281 112.839844 C 0.652344 112.898438 0.691406 112.945312 0.738281 112.992188 C 0.757812 113.023438 0.777344 113.042969 0.804688 113.070312 C 0.824219 113.089844 0.835938 113.097656 0.855469 113.117188 C 0.902344 113.167969 0.949219 113.203125 0.996094 113.242188 C 1.027344 113.273438 1.054688 113.289062 1.082031 113.308594 C 1.101562 113.320312 1.113281 113.328125 1.121094 113.339844 C 1.171875 113.367188 1.21875 113.394531 1.265625 113.414062 C 1.3125 113.445312 1.351562 113.464844 1.398438 113.480469 C 1.410156 113.480469 1.417969 113.492188 1.417969 113.492188 C 1.46875 113.511719 1.515625 113.519531 1.5625 113.539062 C 1.628906 113.558594 1.695312 113.585938 1.765625 113.605469 C 1.78125 113.617188 1.8125 113.617188 1.832031 113.625 L 1.832031 274.1875 C 1.8125 274.1875 1.792969 274.199219 1.773438 274.207031 C 1.746094 274.21875 1.714844 274.226562 1.675781 274.238281 C 1.609375 274.257812 1.535156 274.277344 1.46875 274.304688 C 1.410156 274.324219 1.351562 274.363281 1.292969 274.390625 C 1.257812 274.410156 1.21875 274.429688 1.1875 274.449219 C 1.101562 274.496094 1.027344 274.554688 0.949219 274.621094 C 0.941406 274.628906 0.941406 274.628906 0.929688 274.640625 C 0.855469 274.707031 0.785156 274.773438 0.730469 274.851562 C 0.71875 274.859375 0.710938 274.871094 0.699219 274.878906 C 0.652344 274.9375 0.613281 275.003906 0.566406 275.070312 C 0.546875 275.109375 0.519531 275.136719 0.5 275.175781 C 0.488281 275.195312 0.480469 275.203125 0.46875 275.222656 C 0.453125 275.253906 0.453125 275.289062 0.433594 275.320312 C 0.402344 275.386719 0.375 275.453125 0.355469 275.519531 C 0.335938 275.570312 0.328125 275.617188 0.316406 275.664062 C 0.296875 275.742188 0.289062 275.808594 0.277344 275.882812 C 0.269531 275.933594 0.269531 275.972656 0.269531 276.019531 C 0.269531 276.058594 0.261719 276.085938 0.261719 276.125 C 0.308594 276.125 0.316406 276.171875 0.316406 276.210938 Z M 3.707031 274.832031 C 3.652344 274.765625 3.59375 274.707031 3.527344 274.648438 C 3.507812 274.628906 3.488281 274.609375 3.476562 274.601562 C 3.460938 274.589844 3.449219 274.574219 3.441406 274.5625 L 43.644531 197.460938 C 43.671875 197.472656 43.691406 197.480469 43.71875 197.488281 C 44.648438 197.71875 45.558594 197.269531 45.941406 196.4375 L 127.335938 217.335938 C 127.335938 217.386719 127.335938 217.441406 127.335938 217.492188 C 127.335938 217.53125 127.335938 217.578125 127.335938 217.617188 C 127.34375 217.703125 127.355469 217.777344 127.375 217.855469 C 127.375 217.875 127.382812 217.902344 127.382812 217.921875 L 3.804688 274.957031 C 3.792969 274.9375 3.785156 274.925781 3.773438 274.90625 C 3.746094 274.886719 3.726562 274.859375 3.707031 274.832031 Z M 2.742188 277.933594 C 2.789062 277.925781 2.847656 277.90625 2.894531 277.886719 C 2.953125 277.867188 3.007812 277.839844 3.066406 277.808594 C 3.132812 277.78125 3.191406 277.742188 3.25 277.703125 C 3.285156 277.683594 3.324219 277.65625 3.363281 277.628906 C 3.429688 277.582031 3.496094 277.523438 3.554688 277.464844 C 3.582031 277.4375 3.613281 277.417969 3.632812 277.386719 C 3.6875 277.332031 3.738281 277.265625 3.785156 277.195312 C 3.8125 277.160156 3.84375 277.109375 3.871094 277.0625 C 3.890625 277.023438 3.917969 276.996094 3.9375 276.957031 C 3.949219 276.929688 3.957031 276.898438 3.976562 276.871094 C 3.996094 276.824219 4.015625 276.785156 4.035156 276.738281 C 4.0625 276.671875 4.082031 276.601562 4.101562 276.535156 C 4.109375 276.488281 4.128906 276.441406 4.128906 276.382812 C 4.140625 276.316406 4.148438 276.25 4.148438 276.179688 C 4.148438 276.144531 4.160156 276.105469 4.160156 276.066406 C 4.160156 276.046875 4.160156 276.027344 4.148438 276.007812 C 4.148438 275.972656 4.140625 275.941406 4.140625 275.902344 C 4.128906 275.828125 4.121094 275.742188 4.109375 275.664062 C 4.109375 275.644531 4.101562 275.625 4.089844 275.605469 C 4.089844 275.605469 4.089844 275.597656 4.089844 275.597656 L 126.320312 219.1875 L 3.515625 311.421875 C 3.25 311.171875 2.921875 311.019531 2.578125 310.953125 L 2.578125 277.953125 C 2.644531 277.964844 2.691406 277.953125 2.742188 277.933594 Z M 43.671875 193.773438 L 3.410156 113.253906 C 3.429688 113.234375 3.449219 113.214844 3.46875 113.203125 L 127.574219 216.523438 C 127.566406 216.542969 127.554688 216.570312 127.546875 216.589844 C 127.535156 216.609375 127.527344 216.628906 127.515625 216.636719 L 46.125 195.738281 C 46.179688 194.816406 45.597656 193.992188 44.675781 193.746094 C 44.324219 193.667969 43.988281 193.679688 43.671875 193.773438 Z M 95.476562 40.019531 L 93.347656 85.65625 C 93.28125 85.664062 93.222656 85.683594 93.15625 85.703125 C 93.117188 85.710938 93.082031 85.722656 93.042969 85.730469 C 92.976562 85.75 92.90625 85.78125 92.851562 85.808594 C 92.765625 85.847656 92.679688 85.894531 92.601562 85.941406 C 92.5625 85.960938 92.523438 85.992188 92.496094 86.011719 L 3.878906 2.96875 C 3.878906 2.960938 3.890625 2.960938 3.890625 2.949219 L 94.039062 37.789062 C 94.019531 37.875 94 37.960938 94 38.046875 C 93.953125 38.988281 94.59375 39.808594 95.476562 40.019531 Z M 2.597656 109.8125 L 2.597656 3.832031 C 2.597656 3.832031 2.605469 3.832031 2.605469 3.832031 C 2.625 3.832031 2.65625 3.832031 2.671875 3.820312 L 47.121094 104.535156 L 4.054688 111.078125 C 4.054688 111.078125 4.054688 111.070312 4.054688 111.070312 C 4.042969 111.03125 4.023438 110.992188 4.003906 110.964844 C 3.984375 110.925781 3.976562 110.886719 3.957031 110.859375 C 3.949219 110.839844 3.9375 110.828125 3.929688 110.808594 C 3.917969 110.800781 3.917969 110.78125 3.910156 110.773438 C 3.878906 110.722656 3.84375 110.675781 3.8125 110.628906 C 3.785156 110.589844 3.757812 110.542969 3.726562 110.503906 C 3.726562 110.503906 3.71875 110.492188 3.71875 110.492188 C 3.671875 110.4375 3.613281 110.386719 3.566406 110.332031 C 3.566406 110.332031 3.566406 110.332031 3.554688 110.320312 C 3.515625 110.28125 3.488281 110.253906 3.441406 110.214844 C 3.402344 110.1875 3.363281 110.160156 3.324219 110.140625 C 3.285156 110.109375 3.25 110.082031 3.210938 110.0625 C 3.199219 110.054688 3.191406 110.054688 3.179688 110.042969 C 3.152344 110.023438 3.125 110.015625 3.105469 110.003906 C 3.09375 110.003906 3.085938 109.996094 3.085938 109.996094 C 3.027344 109.96875 2.980469 109.9375 2.921875 109.917969 C 2.902344 109.910156 2.882812 109.910156 2.867188 109.898438 C 2.835938 109.890625 2.808594 109.878906 2.777344 109.878906 C 2.730469 109.84375 2.671875 109.824219 2.597656 109.8125 C 2.605469 109.8125 2.597656 109.8125 2.597656 109.8125 Z M 3.976562 112.542969 C 3.996094 112.515625 4.015625 112.476562 4.023438 112.449219 C 4.070312 112.34375 4.109375 112.226562 4.128906 112.101562 C 4.128906 112.09375 4.128906 112.074219 4.140625 112.066406 C 4.148438 111.996094 4.160156 111.941406 4.167969 111.875 C 4.167969 111.855469 4.175781 111.84375 4.175781 111.824219 C 4.175781 111.816406 4.175781 111.796875 4.175781 111.785156 L 47.484375 105.207031 L 127.285156 215.355469 L 3.917969 112.648438 C 3.9375 112.609375 3.957031 112.574219 3.976562 112.542969 Z M 47.839844 104.355469 L 3.335938 3.515625 C 3.355469 3.507812 3.363281 3.496094 3.382812 3.488281 L 91.996094 86.527344 C 91.988281 86.546875 91.980469 86.574219 91.960938 86.59375 C 91.941406 86.621094 91.929688 86.652344 91.910156 86.679688 C 91.875 86.757812 91.835938 86.84375 91.804688 86.929688 C 91.796875 86.949219 91.789062 86.96875 91.777344 86.996094 C 91.769531 87.015625 91.769531 87.035156 91.769531 87.054688 C 91.738281 87.140625 91.730469 87.234375 91.710938 87.332031 C 91.710938 87.359375 91.699219 87.390625 91.699219 87.417969 C 91.699219 87.4375 91.691406 87.464844 91.691406 87.484375 C 91.691406 87.542969 91.699219 87.601562 91.699219 87.65625 C 91.699219 87.714844 91.699219 87.761719 91.710938 87.820312 C 91.710938 87.847656 91.71875 87.878906 91.71875 87.90625 Z M 48.210938 104.984375 L 91.980469 88.578125 C 91.996094 88.605469 92.015625 88.625 92.035156 88.652344 C 92.074219 88.710938 92.121094 88.769531 92.171875 88.824219 C 92.207031 88.875 92.246094 88.914062 92.292969 88.949219 C 92.34375 88.988281 92.382812 89.035156 92.429688 89.074219 C 92.488281 89.121094 92.554688 89.160156 92.621094 89.210938 C 92.660156 89.226562 92.695312 89.257812 92.734375 89.277344 C 92.8125 89.316406 92.890625 89.34375 92.964844 89.371094 C 93.003906 89.382812 93.03125 89.402344 93.0625 89.410156 C 93.082031 89.410156 93.089844 89.421875 93.109375 89.421875 C 93.175781 89.4375 93.234375 89.449219 93.300781 89.457031 C 93.359375 89.46875 93.40625 89.476562 93.464844 89.476562 C 93.492188 89.476562 93.519531 89.488281 93.550781 89.488281 C 93.589844 89.488281 93.625 89.476562 93.65625 89.476562 C 93.703125 89.476562 93.742188 89.476562 93.789062 89.476562 L 128.398438 215.632812 Z M 95.300781 86.621094 C 95.273438 86.566406 95.234375 86.507812 95.199219 86.449219 C 95.167969 86.414062 95.148438 86.382812 95.121094 86.34375 C 95.082031 86.296875 95.042969 86.25 94.996094 86.210938 C 94.957031 86.171875 94.917969 86.132812 94.871094 86.105469 C 94.832031 86.078125 94.796875 86.046875 94.757812 86.011719 C 94.699219 85.972656 94.640625 85.933594 94.585938 85.894531 C 94.554688 85.875 94.515625 85.855469 94.480469 85.835938 C 94.410156 85.808594 94.34375 85.78125 94.277344 85.75 C 94.25 85.742188 94.230469 85.730469 94.199219 85.722656 C 94.183594 85.714844 94.171875 85.714844 94.152344 85.714844 C 94.125 85.703125 94.105469 85.695312 94.078125 85.683594 L 96.203125 40.050781 C 97.085938 39.925781 97.792969 39.1875 97.851562 38.277344 L 398.773438 2.835938 L 95.351562 86.71875 C 95.332031 86.691406 95.3125 86.652344 95.300781 86.621094 Z M 97.753906 37.558594 C 97.515625 36.8125 96.835938 36.246094 96.011719 36.207031 C 95.292969 36.179688 94.652344 36.554688 94.289062 37.117188 L 4.160156 2.28125 L 397.289062 2.28125 Z M 2.597656 274.1875 L 2.597656 113.605469 C 2.625 113.597656 2.65625 113.585938 2.691406 113.585938 C 2.722656 113.578125 2.742188 113.578125 2.769531 113.570312 L 43.03125 194.097656 C 42.703125 194.347656 42.445312 194.703125 42.320312 195.144531 C 42.128906 195.917969 42.417969 196.675781 43 197.136719 L 2.796875 274.238281 C 2.777344 274.226562 2.75 274.226562 2.730469 274.226562 C 2.683594 274.207031 2.644531 274.1875 2.597656 274.1875 Z M 80.808594 272.121094 C 80.734375 272.070312 80.648438 272.035156 80.5625 271.996094 C 80.542969 271.984375 80.523438 271.976562 80.503906 271.96875 C 80.445312 271.949219 80.378906 271.929688 80.320312 271.917969 C 80.261719 271.898438 80.207031 271.890625 80.148438 271.878906 C 80.101562 271.871094 80.054688 271.871094 80.015625 271.871094 C 79.9375 271.863281 79.859375 271.863281 79.785156 271.863281 C 79.746094 271.863281 79.71875 271.863281 79.679688 271.871094 C 79.59375 271.878906 79.507812 271.890625 79.429688 271.910156 C 79.390625 271.917969 79.363281 271.929688 79.324219 271.9375 C 79.25 271.957031 79.179688 271.984375 79.105469 272.015625 C 79.058594 272.035156 79.007812 272.054688 78.96875 272.070312 C 78.921875 272.101562 78.875 272.128906 78.828125 272.160156 C 78.769531 272.195312 78.703125 272.234375 78.65625 272.273438 C 78.625 272.292969 78.605469 272.320312 78.578125 272.339844 C 78.519531 272.398438 78.453125 272.445312 78.394531 272.503906 C 78.394531 272.503906 78.386719 272.511719 78.386719 272.511719 C 78.367188 272.542969 78.347656 272.570312 78.328125 272.597656 C 78.28125 272.667969 78.222656 272.722656 78.183594 272.789062 C 78.175781 272.800781 78.175781 272.808594 78.164062 272.828125 C 78.15625 272.847656 78.148438 272.867188 78.136719 272.875 C 78.089844 272.972656 78.042969 273.070312 78.011719 273.164062 C 78.003906 273.191406 78.003906 273.210938 77.992188 273.242188 C 77.964844 273.328125 77.945312 273.414062 77.9375 273.488281 C 77.925781 273.539062 77.925781 273.585938 77.925781 273.632812 C 77.925781 273.691406 77.917969 273.757812 77.917969 273.816406 C 77.917969 273.875 77.925781 273.941406 77.925781 273.996094 C 77.9375 274.054688 77.945312 274.101562 77.957031 274.152344 C 77.964844 274.207031 77.984375 274.265625 78.003906 274.324219 C 78.023438 274.390625 78.050781 274.449219 78.070312 274.515625 C 78.089844 274.554688 78.097656 274.601562 78.128906 274.640625 C 78.175781 274.734375 78.234375 274.832031 78.300781 274.925781 C 78.300781 274.925781 78.300781 274.9375 78.308594 274.9375 C 78.386719 275.042969 78.472656 275.136719 78.566406 275.222656 L 2.933594 401.285156 C 2.835938 401.246094 2.730469 401.214844 2.625 401.195312 L 2.625 314.746094 C 2.902344 314.6875 3.179688 314.582031 3.429688 314.402344 C 4.175781 313.835938 4.40625 312.820312 4.003906 312.007812 L 126.730469 219.828125 Z M 129.164062 215.535156 C 129.144531 215.535156 129.136719 215.546875 129.117188 215.546875 C 129.105469 215.546875 129.105469 215.546875 129.097656 215.546875 L 94.460938 89.304688 C 94.5 89.285156 94.535156 89.265625 94.574219 89.246094 C 94.585938 89.238281 94.601562 89.238281 94.621094 89.226562 C 94.824219 89.105469 94.996094 88.949219 95.140625 88.757812 C 95.179688 88.710938 95.207031 88.652344 95.246094 88.597656 C 95.265625 88.558594 95.292969 88.527344 95.3125 88.492188 L 143.417969 103.453125 C 143.3125 104.34375 143.828125 105.1875 144.710938 105.492188 Z M 145.917969 101.816406 C 145 101.546875 144.070312 101.941406 143.636719 102.753906 L 95.53125 87.792969 C 95.53125 87.773438 95.53125 87.753906 95.53125 87.742188 C 95.53125 87.714844 95.542969 87.695312 95.542969 87.667969 C 95.542969 87.621094 95.53125 87.582031 95.53125 87.53125 C 95.53125 87.496094 95.53125 87.457031 95.53125 87.417969 L 396.964844 4.082031 L 146.972656 102.628906 C 146.742188 102.265625 146.386719 101.96875 145.917969 101.816406 Z M 145.917969 101.816406 " fill-opacity="1" fill-rule="nonzero"/></g></svg>